<?xml version="1.0" encoding="utf-8"?>
<!-- Generator: Adobe Illustrator 15.0.0, SVG Export Plug-In . SVG Version: 6.00 Build 0)  -->
<!DOCTYPE svg PUBLIC "-//W3C//DTD SVG 1.1//EN" "http://www.w3.org/Graphics/SVG/1.1/DTD/svg11.dtd">
<svg version="1.1" id="Layer_1" xmlns="http://www.w3.org/2000/svg" xmlns:xlink="http://www.w3.org/1999/xlink" x="0px" y="0px"
	 width="85px" height="85px" viewBox="0 0 85 85" enable-background="new 0 0 85 85" xml:space="preserve">
<g>
	<path fill="none" stroke="#394553" stroke-width="2.5" stroke-linecap="round" stroke-miterlimit="10" d="M45.455,24.434
		c-0.906,1.093-2.275,1.788-3.806,1.788c-2.735,0-4.953-2.218-4.953-4.954"/>
	<path fill="none" stroke="#394553" stroke-width="2.5" stroke-linecap="round" stroke-miterlimit="10" d="M41.649,10.155v6.162
		c2.277,0,4.195,1.537,4.773,3.63"/>
	<g>
		<g>
			<line fill="none" stroke="#394553" stroke-width="2.5" stroke-miterlimit="10" x1="20" y1="47.682" x2="20" y2="64.475"/>
			
				<line fill="none" stroke="#394553" stroke-width="2.5" stroke-miterlimit="10" x1="27.416" y1="47.682" x2="27.416" y2="64.475"/>
			
				<line fill="none" stroke="#394553" stroke-width="2.5" stroke-miterlimit="10" x1="42.247" y1="47.682" x2="42.247" y2="64.475"/>
			
				<line fill="none" stroke="#394553" stroke-width="2.5" stroke-miterlimit="10" x1="34.831" y1="47.551" x2="34.831" y2="64.344"/>
			
				<line fill="none" stroke="#394553" stroke-width="2.5" stroke-miterlimit="10" x1="49.662" y1="47.551" x2="49.662" y2="64.344"/>
			
				<line fill="none" stroke="#394553" stroke-width="2.5" stroke-miterlimit="10" x1="57.076" y1="47.551" x2="57.076" y2="64.344"/>
			
				<line fill="none" stroke="#394553" stroke-width="2.5" stroke-miterlimit="10" x1="64.492" y1="47.551" x2="64.492" y2="64.344"/>
		</g>
		
			<rect x="12.732" y="37.18" fill="none" stroke="#394553" stroke-width="2.5" stroke-miterlimit="10" width="59.536" height="37.666"/>
		<g>
			
				<line fill="none" stroke="#394553" stroke-width="2.5" stroke-linejoin="round" stroke-miterlimit="10" x1="17.762" y1="69.012" x2="72.188" y2="69.012"/>
			
				<line fill="none" stroke="#394553" stroke-width="2.5" stroke-linejoin="round" stroke-miterlimit="10" x1="17.506" y1="43.018" x2="72.061" y2="43.018"/>
		</g>
	</g>
	<g>
		
			<line fill="none" stroke="#394553" stroke-width="2.5" stroke-linecap="round" stroke-miterlimit="10" x1="42.744" y1="22.918" x2="62.355" y2="31.792"/>
		
			<line fill="none" stroke="#394553" stroke-width="2.5" stroke-linecap="round" stroke-miterlimit="10" x1="33.211" y1="27.104" x2="22.644" y2="31.792"/>
	</g>
</g>
</svg>
